General
Complete name                            : Oceans.S01.E01.Sea.of.Cortez.HDTV.P2P4FREE.mp4
Format                                   : MPEG-4
Format profile                           : Base Media
Codec ID                                 : isom
File size                                : 337 MiB
Duration                                 : 58mn 56s
Overall bit rate mode                    : Variable
Overall bit rate                         : 799 Kbps
Movie name                               : 1. Sea of Cortez
Album                                    : Oceans
Track name/Position                      : 1
Grouping                                 : Factual,Science & Nature
Genre                                    : Factual
Writing application                      : Lavf53.21.1
Cover                                    : Yes
desc                                     : The marine experts carry out pioneering science on the 20-metre-long sperm whale.

Video
ID                                       : 1
Format                                   : AVC
Format/Info                              : Advanced Video Codec
Format profile                           : Main@L3.0
Format settings, CABAC                   : Yes
Format settings, ReFrames                : 4 frames
Codec ID                                 : avc1
Codec ID/Info                            : Advanced Video Coding
Duration                                 : 58mn 56s
Bit rate mode                            : Constant
Bit rate                                 : 700 Kbps
Width                                    : 640 pixels
Height                                   : 360 pixels
Display aspect ratio                     : 16:9
Frame rate mode                          : Constant
Frame rate                               : 25.000 fps
Standard                                 : PAL
Color space                              : YUV
Chroma subsampling                       : 4:2:0
Bit depth                                : 8 bits
Scan type                                : Progressive
Bits/(Pixel*Frame)                       : 0.122
Stream size                              : 294 MiB (87%)

Audio
ID                                       : 2
Format                                   : AAC
Format/Info                              : Advanced Audio Codec
Format profile                           : HE-AAC / LC
Codec ID                                 : 40
Duration                                 : 58mn 56s
Bit rate mode                            : Variable
Bit rate                                 : 96.0 Kbps
Channel(s)                               : 2 channels
Channel positions                        : Front: L R
Sampling rate                            : 48.0 KHz / 24.0 KHz
Compression mode                         : Lossy
Stream size                              : 39.9 MiB (12%)

IMDB : http://www.imdb.com/title/tt1324606/

SCREENS
---------------------------------- 
http://share.pho.to/2S2Mh/original 
http://share.pho.to/2S2Mm/original 
http://share.pho.to/2S2N2/original 
http://share.pho.to/2S2N5/original 
http://share.pho.to/2S2NQ/original 
http://share.pho.to/2S2Na/original 
http://share.pho.to/2S2Nh/original 
http://share.pho.to/2S2Nw/original 
http://share.pho.to/2S2Nx/original
----------------------------------

ENJOY AND SEED! ;)